<?xml version="1.0" encoding="UTF-8" standalone="no"?>
<svg
   viewBox="0 0 496 512"
   version="1.1"
   id="svg4"
   sodipodi:docname="github.svg"
   inkscape:version="1.2.1 (9c6d41e4, 2022-07-14)"
   xmlns:inkscape="http://www.inkscape.org/namespaces/inkscape"
   xmlns:sodipodi="http://sodipodi.sourceforge.net/DTD/sodipodi-0.dtd"
   xmlns="http://www.w3.org/2000/svg"
   xmlns:svg="http://www.w3.org/2000/svg">
  <defs
     id="defs8" />
  <sodipodi:namedview
     id="namedview6"
     pagecolor="#ffffff"
     bordercolor="#000000"
     borderopacity="0.25"
     inkscape:showpageshadow="2"
     inkscape:pageopacity="0.0"
     inkscape:pagecheckerboard="0"
     inkscape:deskcolor="#d1d1d1"
     showgrid="false"
     inkscape:zoom="5.599491"
     inkscape:cx="50.36172"
     inkscape:cy="363.78306"
     inkscape:window-width="1440"
     inkscape:window-height="900"
     inkscape:window-x="0"
     inkscape:window-y="0"
     inkscape:window-maximized="0"
     inkscape:current-layer="svg4" />
  <!--! Font Awesome Pro 6.3.0 by @fontawesome - https://fontawesome.com License - https://fontawesome.com/license (Commercial License) Copyright 2023 Fonticons, Inc. -->
  <path
     d="M165.9 397.4c0 2-2.3 3.6-5.2 3.6-3.3.3-5.6-1.3-5.6-3.6 0-2 2.3-3.6 5.2-3.6 3-.3 5.6 1.3 5.6 3.6zm-31.1-4.5c-.7 2 1.3 4.3 4.3 4.9 2.6 1 5.6 0 6.2-2s-1.3-4.3-4.3-5.2c-2.6-.7-5.5.3-6.2 2.3zm44.2-1.7c-2.9.7-4.9 2.6-4.6 4.9.3 2 2.9 3.3 5.9 2.6 2.9-.7 4.9-2.6 4.6-4.6-.3-1.9-3-3.2-5.9-2.9zM244.8 8C106.1 8 0 113.3 0 252c0 110.9 69.8 205.8 169.5 239.2 12.8 2.3 17.3-5.6 17.3-12.1 0-6.2-.3-40.4-.3-61.4 0 0-70 15-84.7-29.8 0 0-11.4-29.1-27.8-36.6 0 0-22.9-15.7 1.6-15.4 0 0 24.9 2 38.6 25.8 21.9 38.6 58.6 27.5 72.9 20.9 2.3-16 8.8-27.1 16-33.7-55.9-6.2-112.3-14.3-112.3-110.5 0-27.5 7.6-41.3 23.6-58.9-2.6-6.5-11.1-33.3 2.6-67.9 20.9-6.5 69 27 69 27 20-5.6 41.5-8.5 62.8-8.5s42.8 2.9 62.8 8.5c0 0 48.1-33.6 69-27 13.7 34.7 5.2 61.4 2.6 67.9 16 17.7 25.8 31.5 25.8 58.9 0 96.5-58.9 104.2-114.8 110.5 9.2 7.9 17 22.9 17 46.4 0 33.7-.3 75.4-.3 83.6 0 6.5 4.6 14.4 17.3 12.1C428.2 457.8 496 362.9 496 252 496 113.3 383.5 8 244.8 8zM97.2 352.9c-1.3 1-1 3.3.7 5.2 1.6 1.6 3.9 2.3 5.2 1 1.3-1 1-3.3-.7-5.2-1.6-1.6-3.9-2.3-5.2-1zm-10.8-8.1c-.7 1.3.3 2.9 2.3 3.9 1.6 1 3.6.7 4.3-.7.7-1.3-.3-2.9-2.3-3.9-2-.6-3.6-.3-4.3.7zm32.4 35.6c-1.6 1.3-1 4.3 1.3 6.2 2.3 2.3 5.2 2.6 6.5 1 1.3-1.3.7-4.3-1.3-6.2-2.2-2.3-5.2-2.6-6.5-1zm-11.4-14.7c-1.6 1-1.6 3.6 0 5.9 1.6 2.3 4.3 3.3 5.6 2.3 1.6-1.3 1.6-3.9 0-6.2-1.4-2.3-4-3.3-5.6-2z"
     id="path2" />
  <path
     style="fill:#ffffff;stroke:#ffffff;stroke-width:8.86383"
     d="M 157.04663,485.19433 C 63.174749,446.57929 1.3746302,354.29307 1.1277204,252.36037 0.89099238,154.6311 57.623036,67.107447 145.74961,29.244206 233.73729,-8.5593633 339.46702,8.2068514 413.18374,71.652881 c 32.39526,27.88175 60.58233,72.648989 72.6897,115.447149 14.99117,52.99202 10.1985,115.93693 -12.88289,169.19906 -23.5432,54.32769 -74.25066,104.61722 -127.68033,126.62797 -19.96355,8.2241 -22.74996,8.64199 -28.69218,4.30292 -3.92927,-2.86917 -4.28389,-6.83474 -5.29601,-59.22087 -1.07251,-55.51262 -1.14957,-56.2706 -6.83394,-67.21551 l -5.74919,-11.06974 17.15074,-2.50776 c 66.52379,-9.72707 92.88281,-39.27045 93.29805,-104.56915 0.16488,-25.91748 -2.60853,-34.96396 -16.53461,-53.93507 -7.26066,-9.89102 -7.55551,-10.95462 -5.50354,-19.85259 3.10244,-13.45318 2.76974,-25.89173 -1.15393,-43.14289 l -3.42815,-15.07233 -10.13118,0.0515 c -11.64153,0.0592 -28.40834,6.42877 -47.58176,18.07601 l -13.3481,8.10855 -17.68778,-3.35531 c -23.13055,-4.38779 -68.42813,-4.37683 -90.38475,0.0219 l -16.85762,3.37718 -17.25436,-9.85772 c -20.96323,-11.97665 -35.16458,-16.92055 -46.00954,-16.01726 -7.61069,0.6339 -8.36235,1.34093 -11.10182,10.44265 -3.48455,11.57722 -4.00613,44.2419 -0.8362,52.36869 1.90583,4.88599 1.4528,6.45753 -3.09239,10.72752 -10.698993,10.05118 -16.921036,27.06806 -17.875363,48.88795 -1.582247,36.17677 6.283865,64.87905 22.821743,83.27315 14.94386,16.62117 36.18309,26.02499 69.21664,30.64615 17.58526,2.46006 18.15999,2.7169 14.68145,6.56063 -1.99115,2.20021 -5.33045,9.12805 -7.42067,15.39526 -4.40944,13.22097 -9.28532,16.53595 -27.01334,18.36563 -16.29796,1.6821 -33.40799,-6.58412 -43.06793,-20.807 -14.88563,-21.91703 -36.201926,-35.4304 -50.305088,-31.89075 -8.618821,2.1632 -6.306603,8.42106 7.571571,20.49191 10.145818,8.82456 14.85675,15.19868 22.122054,29.93215 7.594883,15.40185 10.934943,19.80049 18.843893,24.81621 12.76538,8.09556 28.22973,11.29489 49.84958,10.31306 l 17.78503,-0.80765 v 31.86113 c 0,41.61078 -2.29913,44.32405 -28.4449,33.56876 z"
     id="path252" />
  <path
     style="fill:#ffffff;stroke:#ffffff;stroke-width:8.86383"
     d=""
     id="path254" />
  <path
     style="fill:#ffffff;stroke:#ffffff;stroke-width:8.86383"
     d=""
     id="path256" />
  <path
     style="fill:#ffffff;stroke:#ffffff;stroke-width:8.86383"
     d="m 157.28814,397.01695 c 0,-1.19322 1.4644,-2.16949 3.25423,-2.16949 1.78983,0 3.25424,0.97627 3.25424,2.16949 0,1.19322 -1.46441,2.16949 -3.25424,2.16949 -1.78983,0 -3.25423,-0.97627 -3.25423,-2.16949 z"
     id="path392" />
  <path
     style="fill:#ffffff;stroke:#ffffff;stroke-width:8.86383"
     d=""
     id="path394" />
  <path
     style="fill:#ffffff;stroke:#ffffff;stroke-width:8.86383"
     d="m 137.09853,395.6296 c -0.76304,-0.76304 -0.89449,-2.18481 -0.29211,-3.15948 1.35269,-2.1887 7.46477,-0.0521 7.46477,2.60945 0,2.22611 -5.1051,2.61759 -7.17266,0.55003 z"
     id="path396" />
  <path
     style="fill:#ffffff;stroke:#ffffff;stroke-width:8.86383"
     d=""
     id="path398" />
  <path
     style="fill:#ffffff;stroke:#ffffff;stroke-width:8.86383"
     d="m 108.65453,371.27423 c -0.93455,-1.51214 -1.11329,-3.33524 -0.3972,-4.05134 1.94161,-1.94161 4.05862,0.91401 3.00993,4.06008 -0.73486,2.20459 -1.24587,2.20288 -2.61273,-0.009 z"
     id="path400" />
  <path
     style="fill:#ffffff;stroke:#ffffff;stroke-width:8.86383"
     d=""
     id="path402" />
  <path
     style="fill:#ffffff;stroke:#ffffff;stroke-width:8.86383"
     d="m 119.41468,384.14991 c -2.1737,-3.51712 2.54978,-4.58592 5.35091,-1.21077 2.17983,2.62654 2.04695,3.23035 -0.71089,3.23035 -1.86552,0 -3.95352,-0.90881 -4.64002,-2.01958 z"
     id="path404" />
  <path
     style="fill:#ffffff;stroke:#ffffff;stroke-width:8.86383"
     d=""
     id="path406" />
  <path
     style="fill:#ffffff;stroke:#ffffff;stroke-width:8.86383"
     d=""
     id="path408" />
  <path
     style="fill:#ffffff;stroke:#ffffff;stroke-width:8.86383"
     d=""
     id="path410" />
  <path
     style="fill:#ffffff;stroke:#ffffff;stroke-width:8.86383"
     d=""
     id="path412" />
  <path
     style="fill:#ffffff;stroke:#ffffff;stroke-width:8.86383"
     d=""
     id="path414" />
  <path
     style="fill:#ffffff;stroke:#ffffff;stroke-width:8.86383"
     d="m 176.81356,394.84746 c 0,-1.19322 1.46441,-2.16949 3.25424,-2.16949 1.78983,0 3.25423,0.97627 3.25423,2.16949 0,1.19322 -1.4644,2.16949 -3.25423,2.16949 -1.78983,0 -3.25424,-0.97627 -3.25424,-2.16949 z"
     id="path416" />
  <path
     style="fill:#ffffff;stroke:#ffffff;stroke-width:8.86383"
     d=""
     id="path418" />
  <path
     style="fill:#ffffff;stroke:#ffffff;stroke-width:8.86383"
     d=""
     id="path420" />
  <path
     style="fill:#ffffff;stroke:#ffffff;stroke-width:8.86383"
     d=""
     id="path422" />
  <path
     style="fill:#ffffff;stroke:#ffffff;stroke-width:8.86383"
     d=""
     id="path424" />
  <path
     style="fill:#ffffff;stroke:#ffffff;stroke-width:8.86383"
     d=""
     id="path426" />
  <path
     style="fill:#ffffff;stroke:#ffffff;stroke-width:8.86383"
     d=""
     id="path428" />
  <path
     style="fill:#ffffff;stroke:#ffffff;stroke-width:8.86383"
     d=""
     id="path430" />
  <path
     style="fill:#ffffff;stroke:#ffffff;stroke-width:8.86383"
     d=""
     id="path432" />
  <path
     style="fill:#ffffff;stroke:#ffffff;stroke-width:0.72965"
     d="m 100.15481,359.43873 c -2.533741,-0.93416 -4.299983,-4.01801 -3.351628,-5.85193 1.452851,-2.8095 6.489438,-0.33729 6.964458,3.41852 0.23542,1.86134 -1.67478,3.14794 -3.61283,2.43341 z"
     id="path434" />
  <path
     style="fill:#ffffff;stroke:#ffffff;stroke-width:0.72965"
     d="m 89.414868,348.9596 c -0.898541,-0.38118 -2.35914,-1.48446 -2.70406,-2.04255 -0.986202,-1.59571 -0.06431,-2.95722 2.002363,-2.95722 0.844013,0 1.130588,0.10994 2.464449,0.94541 0.91993,0.5762 1.603203,1.14007 1.749636,1.44389 0.333144,0.6912 0.130184,1.55313 -0.510184,2.16665 -0.438884,0.42047 -0.71528,0.52062 -1.560418,0.56537 -0.564883,0.0299 -1.213687,-0.0248 -1.441786,-0.12155 z"
     id="path436" />
</svg>
