<?xml version="1.0" encoding="UTF-8" standalone="no"?>
<svg
   viewBox="0 0 448 512"
   version="1.1"
   id="svg4"
   sodipodi:docname="linkedin.svg"
   inkscape:version="1.2.1 (9c6d41e4, 2022-07-14)"
   xmlns:inkscape="http://www.inkscape.org/namespaces/inkscape"
   xmlns:sodipodi="http://sodipodi.sourceforge.net/DTD/sodipodi-0.dtd"
   xmlns="http://www.w3.org/2000/svg"
   xmlns:svg="http://www.w3.org/2000/svg">
  <defs
     id="defs8" />
  <sodipodi:namedview
     id="namedview6"
     pagecolor="#ffffff"
     bordercolor="#000000"
     borderopacity="0.25"
     inkscape:showpageshadow="2"
     inkscape:pageopacity="0.0"
     inkscape:pagecheckerboard="0"
     inkscape:deskcolor="#d1d1d1"
     showgrid="false"
     inkscape:zoom="0.4609375"
     inkscape:cx="221.28814"
     inkscape:cy="256"
     inkscape:window-width="1440"
     inkscape:window-height="456"
     inkscape:window-x="0"
     inkscape:window-y="25"
     inkscape:window-maximized="0"
     inkscape:current-layer="svg4" />
  <!--! Font Awesome Pro 6.3.0 by @fontawesome - https://fontawesome.com License - https://fontawesome.com/license (Commercial License) Copyright 2023 Fonticons, Inc. -->
  <path
     d="M416 32H31.9C14.3 32 0 46.5 0 64.3v383.4C0 465.5 14.3 480 31.9 480H416c17.6 0 32-14.5 32-32.3V64.3c0-17.8-14.4-32.3-32-32.3zM135.4 416H69V202.2h66.5V416zm-33.2-243c-21.3 0-38.5-17.3-38.5-38.5S80.9 96 102.2 96c21.2 0 38.5 17.3 38.5 38.5 0 21.3-17.2 38.5-38.5 38.5zm282.1 243h-66.4V312c0-24.8-.5-56.7-34.5-56.7-34.6 0-39.9 27-39.9 54.9V416h-66.4V202.2h63.7v29.2h.9c8.9-16.8 30.6-34.5 62.9-34.5 67.2 0 79.7 44.3 79.7 101.9V416z"
     id="path2" />
  <path
     style="fill:#ffffff;stroke:#ffffff;stroke-width:8.86383"
     d="M 18.887316,474.86119 C 12.640581,471.75682 8.1732326,467.49117 5.3279941,461.91403 1.2085966,453.83936 1.0847458,447.8292 1.0847458,256 c 0,-192.195029 0.1166281,-197.825195 4.2664229,-205.959465 2.9324626,-5.748102 7.2383343,-9.801557 13.7715283,-12.964222 9.50129,-4.599496 9.584809,-4.601111 208.185343,-4.025268 198.14105,0.57451 198.69685,0.588464 204.80473,5.141835 3.36848,2.511168 8.07706,7.88066 10.4635,11.932203 4.2537,7.221651 4.33898,11.268251 4.33898,205.874917 0,194.60667 -0.0853,198.65327 -4.33898,205.87492 -2.38644,4.05155 -7.09502,9.42104 -10.4635,11.9322 -6.10844,4.55376 -6.64702,4.56724 -205.01695,5.12477 L 28.20339,479.49091 Z M 135.59322,309.15254 V 201.76271 H 101.9661 68.338983 V 309.15254 416.54237 H 101.9661 135.59322 Z M 244.44047,352 c 0.70418,-63.82581 0.7723,-64.6628 6.1358,-75.38983 7.18807,-14.37614 19.93602,-21.46061 35.52864,-19.7445 13.95952,1.53639 20.31824,6.0378 25.85111,18.30036 4.24312,9.40403 4.63126,14.77783 5.47138,75.74922 l 0.90426,65.62712 h 33.52205 33.52205 l -0.85595,-78.64406 c -0.93318,-85.74232 -1.7231,-92.05021 -14.03223,-112.05571 -6.91187,-11.23358 -22.55492,-22.76136 -36.04454,-26.56218 -4.96063,-1.3977 -17.31762,-2.60134 -27.45999,-2.67476 -25.13907,-0.18198 -38.48823,4.59103 -53.49662,19.1278 l -11.58812,11.22398 v -12.59737 -12.59736 h -32.54238 -32.54237 v 107.38983 107.38983 h 33.45742 33.45742 z M 125.80622,166.13172 c 15.03968,-11.47133 19.95354,-30.95131 12.14499,-48.14628 -12.53329,-27.599151 -52.038816,-30.477064 -68.886643,-5.01828 -12.243571,18.50128 -5.518926,45.67606 13.91316,56.22409 12.205162,6.62515 31.983643,5.21224 42.828493,-3.05953 z"
     id="path306" />
</svg>
